<svg width="153" height="86" viewBox="0 0 153 86" fill="none" xmlns="http://www.w3.org/2000/svg">
<path d="M12.9773 58.0682V73H4.64205V38.0909H12.7045V51.625H12.9943C13.5852 50.0114 14.5511 48.75 15.892 47.8409C17.2443 46.9318 18.8977 46.4773 20.8523 46.4773C22.6932 46.4773 24.2955 46.8864 25.6591 47.7045C27.0227 48.5114 28.0795 49.6534 28.8295 51.1307C29.5909 52.608 29.9659 54.3352 29.9545 56.3125V73H21.6193V57.9489C21.6307 56.4943 21.267 55.358 20.5284 54.5398C19.7898 53.7216 18.75 53.3125 17.4091 53.3125C16.5341 53.3125 15.7614 53.5057 15.0909 53.892C14.4318 54.267 13.9148 54.8068 13.5398 55.5114C13.1761 56.2159 12.9886 57.0682 12.9773 58.0682ZM42.5384 73.4432C40.8679 73.4432 39.3849 73.1648 38.0895 72.608C36.8054 72.0398 35.7884 71.1875 35.0384 70.0511C34.2997 68.9034 33.9304 67.4659 33.9304 65.7386C33.9304 64.2841 34.1861 63.0568 34.6974 62.0568C35.2088 61.0568 35.9134 60.2443 36.8111 59.6193C37.7088 58.9943 38.7429 58.5227 39.9134 58.2045C41.0838 57.875 42.3338 57.6534 43.6634 57.5398C45.152 57.4034 46.3509 57.2614 47.2599 57.1136C48.169 56.9545 48.8281 56.733 49.2372 56.4489C49.6577 56.1534 49.8679 55.7386 49.8679 55.2045V55.1193C49.8679 54.2443 49.5668 53.5682 48.9645 53.0909C48.3622 52.6136 47.5497 52.375 46.527 52.375C45.4247 52.375 44.5384 52.6136 43.8679 53.0909C43.1974 53.5682 42.7713 54.2273 42.5895 55.0682L34.902 54.7955C35.1293 53.2045 35.7145 51.7841 36.6577 50.5341C37.6122 49.2727 38.919 48.2841 40.5781 47.5682C42.2486 46.8409 44.2543 46.4773 46.5952 46.4773C48.2656 46.4773 49.8054 46.6761 51.2145 47.0739C52.6236 47.4602 53.8509 48.0284 54.8963 48.7784C55.9418 49.517 56.7486 50.4261 57.3168 51.5057C57.8963 52.5852 58.1861 53.8182 58.1861 55.2045V73H50.3452V69.3523H50.1406C49.6747 70.2386 49.0781 70.9886 48.3509 71.6023C47.6349 72.2159 46.7884 72.6761 45.8111 72.983C44.8452 73.2898 43.7543 73.4432 42.5384 73.4432ZM45.1122 67.9886C46.0099 67.9886 46.8168 67.8068 47.5327 67.4432C48.2599 67.0795 48.8395 66.5795 49.2713 65.9432C49.7031 65.2955 49.919 64.5455 49.919 63.6932V61.2045C49.6804 61.3295 49.3906 61.4432 49.0497 61.5455C48.7202 61.6477 48.3565 61.7443 47.9588 61.8352C47.5611 61.9261 47.152 62.0057 46.7315 62.0739C46.3111 62.142 45.9077 62.2045 45.5213 62.2614C44.7372 62.3864 44.0668 62.5795 43.5099 62.8409C42.9645 63.1023 42.544 63.4432 42.2486 63.8636C41.9645 64.2727 41.8224 64.7614 41.8224 65.3295C41.8224 66.1932 42.1293 66.8523 42.7429 67.3068C43.3679 67.7614 44.1577 67.9886 45.1122 67.9886ZM63.2827 73V38.0909H71.6179V51.3011H71.7884C72.1293 50.5057 72.6122 49.7386 73.2372 49C73.8736 48.2614 74.6804 47.6591 75.6577 47.1932C76.6463 46.7159 77.8281 46.4773 79.2031 46.4773C81.0213 46.4773 82.7202 46.9545 84.2997 47.9091C85.8906 48.8636 87.1747 50.3352 88.152 52.3239C89.1293 54.3125 89.6179 56.8466 89.6179 59.9261C89.6179 62.892 89.1463 65.375 88.2031 67.375C87.2713 69.375 86.0099 70.875 84.419 71.875C82.8395 72.875 81.0838 73.375 79.152 73.375C77.8338 73.375 76.6918 73.1591 75.7259 72.7273C74.7599 72.2955 73.9474 71.7273 73.2884 71.0227C72.6406 70.3182 72.1406 69.5625 71.7884 68.7557H71.5327V73H63.2827ZM71.4474 59.9091C71.4474 61.3182 71.6349 62.5455 72.0099 63.5909C72.3963 64.6364 72.9474 65.4489 73.6634 66.0284C74.3906 66.5966 75.2599 66.8807 76.2713 66.8807C77.294 66.8807 78.1634 66.5966 78.8793 66.0284C79.5952 65.4489 80.1349 64.6364 80.4986 63.5909C80.8736 62.5455 81.0611 61.3182 81.0611 59.9091C81.0611 58.5 80.8736 57.2784 80.4986 56.2443C80.1349 55.2102 79.5952 54.4091 78.8793 53.8409C78.1747 53.2727 77.3054 52.9886 76.2713 52.9886C75.2486 52.9886 74.3793 53.267 73.6634 53.8239C72.9474 54.3807 72.3963 55.1761 72.0099 56.2102C71.6349 57.2443 71.4474 58.4773 71.4474 59.9091ZM93.9858 73V46.8182H102.321V73H93.9858ZM98.1619 43.767C96.9915 43.767 95.9858 43.3807 95.1449 42.608C94.304 41.8239 93.8835 40.8807 93.8835 39.7784C93.8835 38.6875 94.304 37.7557 95.1449 36.983C95.9858 36.1989 96.9915 35.8068 98.1619 35.8068C99.3438 35.8068 100.349 36.1989 101.179 36.983C102.02 37.7557 102.44 38.6875 102.44 39.7784C102.44 40.8807 102.02 41.8239 101.179 42.608C100.349 43.3807 99.3438 43.767 98.1619 43.767ZM122.405 46.8182V52.9545H105.888V46.8182H122.405ZM109.348 40.5455H117.683V64.767C117.683 65.2784 117.763 65.6932 117.922 66.0114C118.092 66.3182 118.337 66.5398 118.655 66.6761C118.973 66.8011 119.354 66.8636 119.797 66.8636C120.115 66.8636 120.45 66.8352 120.803 66.7784C121.166 66.7102 121.439 66.6534 121.621 66.608L122.882 72.625C122.484 72.7386 121.922 72.8807 121.195 73.0511C120.479 73.2216 119.621 73.3295 118.621 73.375C116.666 73.4659 114.99 73.2386 113.592 72.6932C112.206 72.1364 111.143 71.2727 110.405 70.1023C109.678 68.9318 109.325 67.4602 109.348 65.6875V40.5455ZM149.188 54.8125L141.534 55.017C141.455 54.4716 141.239 53.9886 140.886 53.5682C140.534 53.1364 140.074 52.8011 139.506 52.5625C138.949 52.3125 138.301 52.1875 137.562 52.1875C136.597 52.1875 135.773 52.3807 135.091 52.767C134.42 53.1534 134.091 53.6761 134.102 54.3352C134.091 54.8466 134.295 55.2898 134.716 55.6648C135.148 56.0398 135.915 56.3409 137.017 56.5682L142.062 57.5227C144.676 58.0227 146.619 58.8523 147.892 60.0114C149.176 61.1705 149.824 62.7045 149.835 64.6136C149.824 66.4091 149.29 67.9716 148.233 69.3011C147.188 70.6307 145.756 71.6648 143.938 72.4034C142.119 73.1307 140.04 73.4943 137.699 73.4943C133.96 73.4943 131.011 72.7273 128.852 71.1932C126.705 69.6477 125.477 67.5795 125.17 64.9886L133.403 64.7841C133.585 65.7386 134.057 66.4659 134.818 66.9659C135.58 67.4659 136.551 67.7159 137.733 67.7159C138.801 67.7159 139.67 67.517 140.341 67.1193C141.011 66.7216 141.352 66.1932 141.364 65.5341C141.352 64.9432 141.091 64.4716 140.58 64.1193C140.068 63.7557 139.267 63.4716 138.176 63.267L133.608 62.3977C130.983 61.9205 129.028 61.0398 127.744 59.7557C126.46 58.4602 125.824 56.8125 125.835 54.8125C125.824 53.0625 126.29 51.5682 127.233 50.3295C128.176 49.0795 129.517 48.125 131.256 47.4659C132.994 46.8068 135.045 46.4773 137.409 46.4773C140.955 46.4773 143.75 47.2216 145.795 48.7102C147.841 50.1875 148.972 52.2216 149.188 54.8125Z" fill="white"/>
<g filter="url(#filter0_f_75_1093)">
<rect x="2" y="2" width="16" height="16" rx="4" fill="#18181B"/>
<rect x="2.5" y="2.5" width="15" height="15" rx="3.5" stroke="#27272A"/>
</g>
<g filter="url(#filter1_if_75_1093)">
<rect x="22" y="2" width="16" height="16" rx="4" fill="#2D442E"/>
<rect x="22.5" y="2.5" width="15" height="15" rx="3.5" stroke="#375A3A"/>
</g>
<g filter="url(#filter2_i_75_1093)">
<rect x="42" y="2" width="16" height="16" rx="4" fill="#39573B"/>
</g>
<rect x="42.5" y="2.5" width="15" height="15" rx="3.5" stroke="#416A45"/>
<g filter="url(#filter3_i_75_1093)">
<rect x="62" y="2" width="16" height="16" rx="4" fill="#4C6B4F"/>
</g>
<rect x="62.5" y="2.5" width="15" height="15" rx="3.5" stroke="#648D68"/>
<g filter="url(#filter4_i_75_1093)">
<rect x="82" y="2" width="16" height="16" rx="4" fill="#517E55"/>
</g>
<rect x="82.5" y="2.5" width="15" height="15" rx="3.5" stroke="#76C67D"/>
<rect x="102.5" y="2.5" width="15" height="15" rx="3.5" fill="#4F9C56" stroke="#6BEE77"/>
<defs>
<filter id="filter0_f_75_1093" x="0" y="0" width="20" height="20" filterUnits="userSpaceOnUse" color-interpolation-filters="sRGB">
<feFlood flood-opacity="0" result="BackgroundImageFix"/>
<feBlend mode="normal" in="SourceGraphic" in2="BackgroundImageFix" result="shape"/>
<feGaussianBlur stdDeviation="1" result="effect1_foregroundBlur_75_1093"/>
</filter>
<filter id="filter1_if_75_1093" x="21" y="1" width="18" height="21" filterUnits="userSpaceOnUse" color-interpolation-filters="sRGB">
<feFlood flood-opacity="0" result="BackgroundImageFix"/>
<feBlend mode="normal" in="SourceGraphic" in2="BackgroundImageFix" result="shape"/>
<feColorMatrix in="SourceAlpha" type="matrix" values="0 0 0 0 0 0 0 0 0 0 0 0 0 0 0 0 0 0 127 0" result="hardAlpha"/>
<feOffset dy="4"/>
<feGaussianBlur stdDeviation="2"/>
<feComposite in2="hardAlpha" operator="arithmetic" k2="-1" k3="1"/>
<feColorMatrix type="matrix" values="0 0 0 0 0 0 0 0 0 0 0 0 0 0 0 0 0 0 0.25 0"/>
<feBlend mode="normal" in2="shape" result="effect1_innerShadow_75_1093"/>
<feGaussianBlur stdDeviation="0.5" result="effect2_foregroundBlur_75_1093"/>
</filter>
<filter id="filter2_i_75_1093" x="42" y="2" width="16" height="20" filterUnits="userSpaceOnUse" color-interpolation-filters="sRGB">
<feFlood flood-opacity="0" result="BackgroundImageFix"/>
<feBlend mode="normal" in="SourceGraphic" in2="BackgroundImageFix" result="shape"/>
<feColorMatrix in="SourceAlpha" type="matrix" values="0 0 0 0 0 0 0 0 0 0 0 0 0 0 0 0 0 0 127 0" result="hardAlpha"/>
<feOffset dy="4"/>
<feGaussianBlur stdDeviation="2"/>
<feComposite in2="hardAlpha" operator="arithmetic" k2="-1" k3="1"/>
<feColorMatrix type="matrix" values="0 0 0 0 0 0 0 0 0 0 0 0 0 0 0 0 0 0 0.25 0"/>
<feBlend mode="normal" in2="shape" result="effect1_innerShadow_75_1093"/>
</filter>
<filter id="filter3_i_75_1093" x="62" y="2" width="16" height="20" filterUnits="userSpaceOnUse" color-interpolation-filters="sRGB">
<feFlood flood-opacity="0" result="BackgroundImageFix"/>
<feBlend mode="normal" in="SourceGraphic" in2="BackgroundImageFix" result="shape"/>
<feColorMatrix in="SourceAlpha" type="matrix" values="0 0 0 0 0 0 0 0 0 0 0 0 0 0 0 0 0 0 127 0" result="hardAlpha"/>
<feOffset dy="4"/>
<feGaussianBlur stdDeviation="2"/>
<feComposite in2="hardAlpha" operator="arithmetic" k2="-1" k3="1"/>
<feColorMatrix type="matrix" values="0 0 0 0 0 0 0 0 0 0 0 0 0 0 0 0 0 0 0.25 0"/>
<feBlend mode="normal" in2="shape" result="effect1_innerShadow_75_1093"/>
</filter>
<filter id="filter4_i_75_1093" x="82" y="2" width="16" height="20" filterUnits="userSpaceOnUse" color-interpolation-filters="sRGB">
<feFlood flood-opacity="0" result="BackgroundImageFix"/>
<feBlend mode="normal" in="SourceGraphic" in2="BackgroundImageFix" result="shape"/>
<feColorMatrix in="SourceAlpha" type="matrix" values="0 0 0 0 0 0 0 0 0 0 0 0 0 0 0 0 0 0 127 0" result="hardAlpha"/>
<feOffset dy="4"/>
<feGaussianBlur stdDeviation="2"/>
<feComposite in2="hardAlpha" operator="arithmetic" k2="-1" k3="1"/>
<feColorMatrix type="matrix" values="0 0 0 0 0 0 0 0 0 0 0 0 0 0 0 0 0 0 0.25 0"/>
<feBlend mode="normal" in2="shape" result="effect1_innerShadow_75_1093"/>
</filter>
</defs>
</svg>
